<svg width="69" height="40" viewBox="0 0 69 40" fill="none" xmlns="http://www.w3.org/2000/svg">
<path d="M34.6357 24.3649L23.1677 24.3649L34.6883 40L46.13 24.3649L34.6357 24.3649Z" fill="#FF0077"/>
<path d="M30.7831 30.3933C36.952 24.1955 36.9875 14.1824 30.8622 8.02877C24.737 1.87491 14.7707 1.91056 8.60175 8.10831C2.43282 14.3061 2.39734 24.3189 8.52258 30.4728C14.6476 36.6267 24.6141 36.591 30.7831 30.3933Z" fill="white"/>
<path d="M29.3275 27.8062C34.4634 22.6463 34.493 14.31 29.3934 9.18683C24.2939 4.06349 15.9966 4.09317 10.8607 9.25305C5.72481 14.4129 5.69527 22.7491 10.7948 27.8724C15.8941 32.9957 24.1916 32.9661 29.3275 27.8062Z" fill="#DDFAFF"/>
<path d="M0 8.85146C0.535896 8.15675 1.57312 6.2463 2.21274 5.60369C9.81901 -1.93392 22.0755 -1.86444 29.578 5.79474C31.0647 7.30573 32.2575 9.00777 33.1391 10.8314C22.4558 7.06258 10.7698 7.96571 0 8.85146Z" fill="#84489C"/>
<path d="M23.5309 26.827C27.5408 26.827 30.7915 23.5612 30.7915 19.5325C30.7915 15.5039 27.5408 12.2381 23.5309 12.2381C19.521 12.2381 16.2704 15.5039 16.2704 19.5325C16.2704 23.5612 19.521 26.827 23.5309 26.827Z" fill="black"/>
<path d="M27.6452 22.0161C28.9818 22.0161 30.0654 20.9275 30.0654 19.5846C30.0654 18.2417 28.9818 17.1531 27.6452 17.1531C26.3086 17.1531 25.225 18.2417 25.225 19.5846C25.225 20.9275 26.3086 22.0161 27.6452 22.0161Z" fill="white"/>
<path d="M37.9476 30.3933C31.7787 24.1955 31.7432 14.1824 37.8684 8.02877C43.9937 1.87491 53.96 1.91056 60.1289 8.10831C66.2978 14.3061 66.3333 24.3189 60.2081 30.4728C54.083 36.6267 44.1165 36.591 37.9476 30.3933Z" fill="white"/>
<path d="M39.4032 27.8062C34.2673 22.6463 34.2378 14.31 39.3373 9.18683C44.4368 4.06349 52.7342 4.09317 57.87 9.25305C63.0059 14.4129 63.0355 22.7491 57.936 27.8724C52.8366 32.9957 44.5391 32.9661 39.4032 27.8062Z" fill="#DDFAFF"/>
<path d="M68.7307 8.85146C68.1948 8.15675 67.1576 6.2463 66.518 5.60369C58.9117 -1.93392 46.6553 -1.86444 39.1527 5.79474C37.666 7.30573 36.4732 9.00777 35.5916 10.8314C46.275 7.06258 57.961 7.96571 68.7307 8.85146Z" fill="#84489C"/>
<path d="M45.1997 26.827C41.1898 26.827 37.9392 23.5612 37.9392 19.5325C37.9392 15.5039 41.1898 12.2381 45.1997 12.2381C49.2096 12.2381 52.4603 15.5039 52.4603 19.5325C52.4603 23.5612 49.2096 26.827 45.1997 26.827Z" fill="black"/>
<path d="M41.0854 22.0161C39.7488 22.0161 38.6652 20.9275 38.6652 19.5846C38.6652 18.2417 39.7488 17.1531 41.0854 17.1531C42.422 17.1531 43.5056 18.2417 43.5056 19.5846C43.5056 20.9275 42.422 22.0161 41.0854 22.0161Z" fill="white"/>
</svg>
